# xmcd
#
# Track frame offsets: 
#        150
#        10173
#        23013
#        34197
#        46351
#        57338
#        70049
#        81451
#        95081
#        108460
#        120626
#        133358
#        145567
#        160819
#        174190
#        189463
#        206300
#        219305
#        234412
#        254840
#        267639
#        288927
#        307090
#        320324
#        333765
#
# Disc length: 4596 seconds
#
# Revision: 1
# Processed by: cddbd v1.5.1PL0 Copyright (c) Steve Scherf et al.
# Submitted via: ExactAudioCopy v0.95a5
#
DISCID=6a11f219
DTITLE=Conway Twitty - 25 #1's
DYEAR=2004
DGENRE=Country
TTITLE0=Its Only Make Believe
TTITLE1=Next In Line
TTITLE2=Hello Darlin'
TTITLE3=After The Fire Is Gone (Loretta Lynn)
TTITLE4=Lead Me On (Loretta Lynn)
TTITLE5=I Can't Stop Loving You
TTITLE6=Louisiana Woman Mississippi Man (Loretta Lynn)
TTITLE7=You've Never Been This Far Before
TTITLE8=There's A Honky Tonk Angel (Who'll Take Me Back In)
TTITLE9=As Soon As I Hang Up The Phone (Loretta Lynn)
TTITLE10=I See The Want To In Your Eyes
TTITLE11=Linda On My Mind
TTITLE12=Touch The Hand
TTITLE13=After All The Good Is Gone
TTITLE14=Play Guitar Play
TTITLE15=Don't Take It Away
TTITLE16=Happy Birthday Darlin'
TTITLE17=I'd Just Love To Lay You Down
TTITLE18=Rest Your Love On Me
TTITLE19=Tight Fittin' Jeans
TTITLE20=Red Neckin' Love Makin' Night
TTITLE21=The Clown
TTITLE22=Slow Hand
TTITLE23=I Don't Know A Thing About Love
TTITLE24=Desperado Love
EXTD=
EXTT0=
EXTT1=
EXTT2=
EXTT3=
EXTT4=
EXTT5=
EXTT6=
EXTT7=
EXTT8=
EXTT9=
EXTT10=
EXTT11=
EXTT12=
EXTT13=
EXTT14=
EXTT15=
EXTT16=
EXTT17=
EXTT18=
EXTT19=
EXTT20=
EXTT21=
EXTT22=
EXTT23=
EXTT24=
PLAYORDER=
